<?xml version="1.0" standalone="no"?>
<!DOCTYPE svg PUBLIC "-//W3C//DTD SVG 20010904//EN"
 "http://www.w3.org/TR/2001/REC-SVG-20010904/DTD/svg10.dtd">
<svg version="1.0" xmlns="http://www.w3.org/2000/svg"
 width="260.000000pt" height="260.000000pt" viewBox="0 0 260.000000 260.000000"
 preserveAspectRatio="xMidYMid meet">
<metadata>
Created by potrace 1.11, written by Peter Selinger 2001-2013
</metadata>
<g transform="translate(0.000000,260.000000) scale(0.100000,-0.100000)"
fill="#000000" stroke="none">
<path d="M271 2497 l-32 -34 -17 -189 c-17 -185 -17 -191 2 -279 11 -49 25
-95 31 -101 5 -6 62 -70 125 -142 63 -72 116 -130 117 -128 2 1 -20 69 -49
150 -46 133 -53 147 -72 142 -12 -3 -41 -7 -66 -10 -25 -3 -5 3 44 14 49 11
90 21 92 22 1 2 -31 50 -72 107 l-74 104 0 104 0 104 46 71 c25 39 44 71 42
72 -15 9 -62 26 -72 26 -6 0 -27 -15 -45 -33z"/>
<path d="M2240 2519 c-13 -6 -26 -12 -28 -14 -3 -2 14 -33 37 -69 l41 -66 0
-113 0 -113 -71 -98 c-39 -54 -69 -100 -66 -102 5 -5 191 -43 195 -39 2 1 12
40 23 86 21 83 21 87 4 274 -17 185 -18 190 -48 227 -31 39 -45 44 -87 27z"/>
<path d="M357 2418 c-36 -61 -37 -65 -37 -165 0 -92 2 -104 23 -129 l24 -27
87 63 c47 34 88 66 90 69 13 20 -120 251 -144 251 -3 0 -23 -28 -43 -62z"/>
<path d="M2147 2419 c-52 -70 -106 -187 -91 -197 6 -4 47 -33 91 -64 45 -32
84 -58 87 -58 3 0 13 11 22 25 13 20 16 48 15 136 -2 109 -3 113 -36 165 -19
30 -37 54 -39 54 -2 0 -24 -27 -49 -61z"/>
<path d="M465 2148 c-44 -33 -81 -64 -83 -69 -2 -5 15 -35 38 -68 38 -54 44
-58 68 -51 28 8 114 41 121 46 5 4 -52 204 -58 203 -3 0 -42 -28 -86 -61z"/>
<path d="M2029 2168 c-6 -24 -20 -70 -30 -102 -10 -33 -18 -60 -16 -61 1 -1
34 -13 73 -28 67 -24 73 -25 86 -9 24 27 80 113 76 116 -1 1 -37 27 -78 57
-41 30 -80 58 -87 62 -8 5 -16 -6 -24 -35z"/>
<path d="M620 2126 c0 -11 221 -196 235 -196 9 0 14 -4 11 -9 -6 -10 31 -61
44 -61 4 0 3 16 -3 35 -6 19 -13 35 -16 35 -3 0 -7 25 -8 56 -1 31 -6 61 -11
66 -6 6 -61 25 -124 44 -114 34 -128 37 -128 30z"/>
<path d="M1895 2110 c-33 -10 -85 -26 -116 -35 l-56 -16 -12 -57 c-8 -40 -8
-58 -1 -60 7 -3 6 -8 -3 -16 -15 -11 -32 -66 -21 -66 9 0 49 53 47 62 -2 5 3
8 11 8 10 0 149 115 231 191 14 13 -12 10 -80 -11z"/>
<path d="M603 2099 c20 -79 34 -94 162 -179 69 -46 128 -80 132 -77 9 10 -8
26 -159 158 -109 94 -140 117 -135 98z"/>
<path d="M1864 2006 c-139 -122 -170 -153 -162 -162 4 -3 62 32 131 78 122 80
126 85 146 138 11 30 19 55 18 57 -2 1 -61 -49 -133 -111z"/>
<path d="M900 2038 c0 -47 26 -171 37 -175 7 -3 29 -2 48 1 l35 7 0 62 0 63
-55 27 c-64 31 -65 31 -65 15z"/>
<path d="M1628 2019 l-58 -29 0 -55 c0 -50 2 -56 26 -65 24 -9 74 -14 74 -7 0
2 5 30 10 63 20 115 21 124 13 124 -4 -1 -34 -14 -65 -31z"/>
<path d="M131 1912 c-56 -115 -65 -144 -97 -296 -30 -146 -35 -193 -21 -175 9
11 197 566 197 582 0 38 -19 11 -79 -111z"/>
<path d="M2393 2003 c8 -55 191 -571 195 -550 2 10 -10 86 -27 170 -27 132
-39 169 -94 284 -34 73 -66 132 -71 132 -5 1 -6 -16 -3 -36z"/>
<path d="M1866 1928 l-98 -67 64 -32 64 -31 112 67 c62 37 110 70 107 74 -4 3
-39 17 -79 31 l-73 26 -97 -68z"/>
<path d="M542 1965 c-35 -13 -65 -25 -67 -27 -3 -2 47 -34 109 -71 l113 -67
61 27 c34 16 61 31 62 35 0 13 -179 128 -197 127 -10 -1 -47 -12 -81 -24z"/>
<path d="M116 1691 l-97 -279 111 -167 c61 -92 112 -165 114 -163 4 8 -20 877
-25 882 -3 3 -49 -120 -103 -273z"/>
<path d="M1044 1920 c4 -30 9 -66 12 -80 l6 -25 -19 22 c-16 20 -24 22 -75 16
-40 -4 -58 -10 -58 -20 0 -11 4 -11 20 -3 16 8 20 8 20 -4 0 -10 -6 -13 -17
-9 -11 4 -14 3 -9 -5 11 -18 -2 -14 -42 13 -20 14 -40 25 -44 25 -4 0 -73 -31
-154 -70 -134 -64 -199 -91 -131 -54 15 8 27 18 26 22 -1 7 -135 124 -149 130
-4 1 7 -38 24 -88 25 -74 34 -90 49 -86 9 2 15 0 11 -5 -8 -13 -6 -13 221 45
l210 53 35 -23 c19 -13 38 -24 41 -24 4 0 13 15 20 33 l14 32 5 -29 c6 -32 98
-119 140 -131 24 -7 24 -6 -7 26 -25 26 -36 51 -48 107 -12 61 -23 83 -62 130
l-46 57 7 -55z m-14 -98 c0 -13 -12 -22 -22 -16 -10 6 -1 24 13 24 5 0 9 -4 9
-8z"/>
<path d="M1508 1913 c-35 -46 -47 -72 -57 -123 -9 -43 -23 -77 -43 -102 -33
-42 -31 -45 13 -23 16 9 34 13 39 10 6 -4 33 11 62 31 28 21 46 40 40 42 -7 2
-31 -12 -54 -32 -52 -45 -66 -36 -15 10 24 22 37 43 37 59 0 14 5 25 10 25 6
0 10 -6 10 -13 0 -7 6 -21 13 -31 13 -18 15 -17 53 7 37 25 41 26 79 12 22 -8
49 -14 59 -15 11 0 17 -3 13 -6 -3 -3 -30 0 -60 7 l-55 12 -102 -69 c-93 -63
-140 -107 -128 -119 6 -6 351 145 359 157 5 8 109 -9 109 -18 0 -3 -19 -2 -43
1 -39 6 -59 -1 -212 -70 l-170 -76 183 5 c100 3 182 2 182 -3 0 -4 21 -5 48
-1 26 4 82 11 124 15 74 6 77 8 87 37 6 17 10 32 9 33 -2 1 -30 7 -63 14 -79
16 -136 33 -131 38 2 3 42 -5 89 -16 46 -12 91 -19 99 -16 9 4 28 41 43 83 16
42 31 83 33 91 3 8 -31 -16 -76 -54 -45 -37 -79 -72 -76 -76 8 -13 -31 3 -147
62 l-104 52 -50 -28 c-28 -16 -44 -21 -36 -12 19 24 7 33 -51 40 -41 5 -56 3
-71 -11 -19 -17 -19 -16 -13 28 4 25 9 57 12 73 3 15 4 27 1 27 -2 0 -24 -26
-49 -57z m162 -82 c0 -6 -4 -13 -10 -16 -5 -3 -10 1 -10 9 0 9 5 16 10 16 6 0
10 -4 10 -9z m-80 -16 c0 -8 -4 -15 -9 -15 -13 0 -22 16 -14 24 11 11 23 6 23
-9z m485 -105 c3 -5 -4 -6 -15 -3 -11 3 -22 9 -25 13 -3 5 4 6 15 3 11 -3 22
-9 25 -13z m-175 -60 c-30 -27 -59 -49 -65 -50 -5 0 15 22 45 50 30 27 60 49
65 49 6 0 -15 -22 -45 -49z"/>
<path d="M2366 1733 c-3 -131 -9 -332 -12 -448 -4 -115 -4 -208 -1 -205 3 3
54 79 114 170 l110 166 -93 264 c-52 146 -94 271 -94 278 0 6 -4 12 -9 12 -5
0 -11 -107 -15 -237z"/>
<path d="M2037 1871 c-58 -37 -109 -70 -112 -73 -4 -4 11 -16 32 -27 l39 -20
93 79 c50 44 92 83 92 87 0 4 -8 10 -18 14 -14 5 -50 -12 -126 -60z"/>
<path d="M416 1921 c-3 -5 37 -45 89 -90 l95 -82 41 21 c47 25 57 13 -86 103
-86 54 -127 68 -139 48z"/>
<path d="M2195 1909 c-3 -8 -25 -72 -50 -142 -25 -71 -47 -133 -51 -138 -3 -5
-2 -9 3 -8 10 1 221 243 229 262 4 10 -7 16 -38 21 -24 4 -53 9 -65 13 -14 3
-25 0 -28 -8z"/>
<path d="M245 1579 c4 -173 10 -354 14 -403 l6 -88 113 252 c62 138 112 256
110 260 -2 5 -59 72 -127 151 l-123 143 7 -315z"/>
<path d="M2228 1743 l-126 -146 48 -106 c119 -269 174 -387 182 -395 4 -6 8
30 8 80 0 49 5 228 10 398 5 170 8 311 7 313 -2 1 -60 -63 -129 -144z"/>
<path d="M920 1781 c-8 -5 -34 -12 -57 -16 -24 -4 -43 -10 -43 -13 0 -4 81
-44 180 -88 99 -45 180 -79 180 -75 -2 23 -36 58 -110 109 -130 90 -134 92
-150 83z"/>
<path d="M1030 1743 c1 -5 26 -26 58 -47 l57 -39 -45 47 c-40 41 -71 59 -70
39z"/>
<path d="M702 1727 c-24 -7 -42 -16 -42 -22 1 -5 27 -31 57 -57 l55 -46 121
-7 c67 -4 147 -5 177 -3 l55 3 -165 73 c-91 39 -176 72 -190 71 -14 -1 -44 -6
-68 -12z"/>
<path d="M542 1687 c-40 -9 -43 -12 -37 -36 4 -14 9 -29 13 -33 8 -7 231 -32
238 -26 2 2 -24 28 -59 56 -65 55 -77 58 -155 39z"/>
<path d="M1170 1641 c0 -18 41 -99 55 -111 20 -17 26 -10 32 37 4 27 1 43 -10
51 -19 16 -77 33 -77 23z m67 -67 c-3 -3 -12 -4 -19 -1 -8 3 -5 6 6 6 11 1 17
-2 13 -5z"/>
<path d="M1388 1637 c-45 -11 -61 -45 -44 -95 l11 -33 23 24 c12 13 22 29 22
36 0 6 7 26 16 42 8 17 14 32 12 33 -2 2 -20 -1 -40 -7z m-1 -63 c-3 -3 -12
-4 -19 -1 -8 3 -5 6 6 6 11 1 17 -2 13 -5z"/>
<path d="M521 1596 c9 -8 293 -185 295 -183 3 3 -23 147 -27 151 -4 4 -242 36
-264 36 -4 0 -6 -2 -4 -4z"/>
<path d="M1930 1584 c-58 -8 -110 -16 -116 -18 -9 -4 -39 -145 -32 -151 3 -3
272 166 284 178 9 9 -6 8 -136 -9z"/>
<path d="M815 1580 c-4 -6 14 -21 179 -147 l121 -92 42 41 c36 36 73 103 61
112 -1 2 -77 16 -168 32 -90 16 -157 30 -149 32 9 2 83 -9 164 -23 81 -15 149
-25 151 -22 2 2 -11 17 -29 35 l-32 31 -168 3 c-93 2 -170 1 -172 -2z m58 -17
c-7 -2 -19 -2 -25 0 -7 3 -2 5 12 5 14 0 19 -2 13 -5z"/>
<path d="M1593 1580 l-162 -5 -32 -32 c-36 -38 -34 -38 81 -18 265 48 278 50
269 41 -2 -3 -83 -19 -179 -36 -96 -17 -181 -33 -188 -35 -20 -7 12 -73 57
-119 l39 -39 128 98 c172 132 159 122 151 108 -4 -7 -56 -49 -115 -94 -59 -45
-117 -91 -129 -102 l-22 -20 67 -48 c36 -27 69 -45 73 -41 3 4 37 73 74 155
38 81 70 145 72 143 3 -2 -25 -68 -61 -145 -35 -78 -62 -141 -60 -141 22 0 85
44 89 63 28 118 43 222 35 233 -6 6 -8 19 -4 28 4 10 1 15 -7 14 -8 -1 -87 -4
-176 -8z"/>
<path d="M430 1410 c-35 -88 -61 -162 -59 -164 5 -4 573 -25 578 -20 2 2 -48
27 -110 57 -111 52 -117 56 -224 170 -61 64 -113 117 -116 117 -3 0 -34 -72
-69 -160z"/>
<path d="M615 1479 c49 -52 97 -102 106 -113 16 -18 18 -18 48 5 17 12 31 25
31 29 0 3 -44 33 -97 65 -192 118 -187 118 -88 14z"/>
<path d="M1930 1489 c-69 -43 -126 -83 -128 -88 -2 -5 8 -17 23 -27 14 -9 23
-19 21 -21 -3 -3 -19 5 -36 17 -17 12 -32 21 -34 19 -10 -13 -22 -89 -15 -89
30 0 98 52 199 154 63 64 110 116 105 115 -6 0 -66 -36 -135 -80z"/>
<path d="M1978 1451 c-111 -115 -118 -121 -219 -167 -57 -26 -108 -52 -114
-57 -6 -6 16 -7 60 -3 39 3 172 9 298 12 125 4 227 8 227 10 0 10 -123 310
-129 317 -5 4 -60 -46 -123 -112z"/>
<path d="M810 1539 c0 -6 10 -65 22 -131 l22 -120 39 -19 c21 -11 41 -18 43
-16 3 2 -23 64 -56 137 -33 73 -59 134 -57 136 2 2 35 -62 72 -144 38 -81 70
-149 71 -151 5 -6 134 93 132 100 -4 10 -271 219 -280 219 -5 0 -8 -5 -8 -11z"/>
<path d="M775 1365 c-16 -13 -27 -26 -25 -27 17 -12 83 -38 87 -34 6 6 -17 86
-25 86 -4 -1 -20 -12 -37 -25z"/>
<path d="M369 1216 c7 -9 17 -16 21 -16 4 0 130 -70 280 -155 150 -85 276
-153 278 -150 3 3 -10 22 -30 43 -19 20 -78 89 -131 153 l-97 117 -147 6 c-82
4 -157 10 -168 13 -17 5 -18 4 -6 -11z"/>
<path d="M2065 1216 c-82 -6 -155 -14 -162 -18 -16 -11 -265 -308 -257 -308
12 0 584 325 584 333 0 4 -3 6 -7 5 -5 0 -75 -6 -158 -12z"/>
<path d="M306 1139 c-24 -53 -33 -85 -27 -93 5 -6 9 -15 10 -21 0 -18 976
-955 979 -940 2 7 -81 115 -184 239 l-187 226 -284 222 c-344 269 -330 258
-320 258 5 0 130 -95 280 -212 149 -116 277 -211 284 -211 7 0 102 -108 211
-240 l197 -240 3 105 3 105 -147 249 c-80 137 -154 257 -163 267 -17 17 -552
330 -556 325 -2 -2 100 -128 227 -281 126 -153 228 -280 226 -282 -2 -2 -118
133 -257 301 -140 167 -255 304 -256 304 -1 0 -19 -37 -39 -81z"/>
<path d="M1992 913 c-139 -168 -252 -306 -250 -308 2 -1 134 99 294 223 l291
226 -36 83 c-20 45 -38 82 -41 82 -3 0 -119 -138 -258 -306z"/>
<path d="M825 1068 c59 -73 110 -134 115 -136 4 -1 -9 57 -30 130 l-37 133
-77 3 -77 3 106 -133z"/>
<path d="M1724 1189 c-9 -14 -73 -253 -70 -257 4 -3 216 256 216 263 0 11
-139 5 -146 -6z"/>
<path d="M1910 1020 l-275 -159 -153 -259 -153 -259 3 -106 3 -105 305 371
c168 204 362 440 432 524 70 84 124 153 120 152 -4 0 -131 -72 -282 -159z"/>
<path d="M2283 1007 c-15 -13 -154 -122 -307 -241 -279 -217 -279 -217 -409
-374 -241 -292 -263 -322 -241 -322 3 0 218 205 477 457 260 251 483 467 497
480 32 30 20 30 -17 0z"/>
</g>
</svg>
